<svg version="1.1" xmlns="http://www.w3.org/2000/svg" xmlns:xlink="http://www.w3.org/1999/xlink" xmlns:a="http://ns.adobe.com/AdobeSVGViewerExtensions/3.0/" x="0px" y="0px" width="242px" height="314px" xml:space="preserve"><path fill="#489BD4" d="M169.2,107.9c-4.5,9-10.9,16.8-19,23.2c-16.5,13.2-39.5,20.1-66.4,20.1H63.7V308h55.8v-57.5h27.9 c49.8,0,86.3-25,86.3-72.8v-0.6C233.7,138.6,208.9,113.8,169.2,107.9 M172,212.5l-22.5-16.2l-22.5,16.2l8.4-26.3l-22.3-16.4	l27.7-0.1l8.7-26.3l8.7,26.3l27.7,0.1l-22.3,16.4L172,212.5z"/><path fill="#FFFFFF" d="M86.6,0H0v201.4h55.8v-57.5h27.9c49.8,0,86.3-25,86.3-72.8v-0.6C170,26.2,137.2,0,86.6,0 M107.6,105.9	L85.1,89.8l-22.5,16.2l8.4-26.4L48.8,63.2l27.7-0.1l8.7-26.3l8.7,26.3l27.7,0.1L99.1,79.6L107.6,105.9z"/></svg>